<svg width="20" height="30" viewBox="0 0 48 48" fill="none" xmlns="http://www.w3.org/2000/svg">
<g clip-path="url(#clip0_1545_37801)">
<path d="M25.0226 29.511C25.0376 29.493 25.0436 29.469 25.0586 29.451L35.5317 17.88C36.1167 17.229 36.1167 16.173 35.5317 15.522C35.5257 15.516 35.5197 15.513 35.5137 15.51C35.3835 15.3524 35.2205 15.2251 35.036 15.137C34.8515 15.0489 34.6501 15.0021 34.4457 15H13.4967C13.2885 15.0034 13.0836 15.0524 12.8965 15.1436C12.7093 15.2349 12.5445 15.3661 12.4137 15.528L12.4077 15.522C12.1245 15.8496 11.9688 16.2681 11.9688 16.701C11.9688 17.1339 12.1245 17.5524 12.4077 17.88L22.9047 29.511C23.0353 29.6642 23.1977 29.7872 23.3805 29.8715C23.5633 29.9559 23.7623 29.9996 23.9637 29.9996C24.165 29.9996 24.364 29.9559 24.5468 29.8715C24.7296 29.7872 24.892 29.6642 25.0226 29.511Z" fill="#6B185E"/>
</g>
<defs>
<clipPath id="clip0_1545_37801">
<rect width="48" height="48" rx="18" fill="white"/>
</clipPath>
</defs>
</svg>
