<svg width="24" height="24" viewBox="0 0 24 24" fill="none" xmlns="http://www.w3.org/2000/svg">
<path d="M1.5 5.24979H1.6065C1.7702 5.89297 2.14354 6.46328 2.66754 6.87062C3.19153 7.27795 3.83631 7.49908 4.5 7.49908C5.16369 7.49908 5.80847 7.27795 6.33246 6.87062C6.85646 6.46328 7.2298 5.89297 7.3935 5.24979H22.5C22.6989 5.24979 22.8897 5.17077 23.0303 5.03012C23.171 4.88946 23.25 4.6987 23.25 4.49979C23.25 4.30087 23.171 4.11011 23.0303 3.96946C22.8897 3.8288 22.6989 3.74979 22.5 3.74979H7.3935C7.2298 3.1066 6.85646 2.53629 6.33246 2.12896C5.80847 1.72162 5.16369 1.50049 4.5 1.50049C3.83631 1.50049 3.19153 1.72162 2.66754 2.12896C2.14354 2.53629 1.7702 3.1066 1.6065 3.74979H1.5C1.30109 3.74979 1.11032 3.8288 0.96967 3.96946C0.829018 4.11011 0.75 4.30087 0.75 4.49979C0.75 4.6987 0.829018 4.88946 0.96967 5.03012C1.11032 5.17077 1.30109 5.24979 1.5 5.24979ZM4.5 2.99979C4.79667 2.99979 5.08668 3.08776 5.33335 3.25258C5.58003 3.4174 5.77229 3.65167 5.88582 3.92576C5.99935 4.19985 6.02906 4.50145 5.97118 4.79242C5.9133 5.08339 5.77044 5.35067 5.56066 5.56045C5.35088 5.77023 5.08361 5.91309 4.79264 5.97096C4.50166 6.02884 4.20006 5.99914 3.92597 5.88561C3.65189 5.77207 3.41762 5.57982 3.2528 5.33314C3.08797 5.08647 3 4.79646 3 4.49979C3 4.10196 3.15804 3.72043 3.43934 3.43913C3.72064 3.15782 4.10218 2.99979 4.5 2.99979ZM22.5 11.2498H22.3935C22.2298 10.6066 21.8565 10.0363 21.3325 9.62896C20.8085 9.22162 20.1637 9.00049 19.5 9.00049C18.8363 9.00049 18.1915 9.22162 17.6675 9.62896C17.1435 10.0363 16.7702 10.6066 16.6065 11.2498H1.5C1.30109 11.2498 1.11032 11.3288 0.96967 11.4695C0.829018 11.6101 0.75 11.8009 0.75 11.9998C0.75 12.1987 0.829018 12.3895 0.96967 12.5301C1.11032 12.6708 1.30109 12.7498 1.5 12.7498H16.6065C16.7702 13.393 17.1435 13.9633 17.6675 14.3706C18.1915 14.778 18.8363 14.9991 19.5 14.9991C20.1637 14.9991 20.8085 14.778 21.3325 14.3706C21.8565 13.9633 22.2298 13.393 22.3935 12.7498H22.5C22.6989 12.7498 22.8897 12.6708 23.0303 12.5301C23.171 12.3895 23.25 12.1987 23.25 11.9998C23.25 11.8009 23.171 11.6101 23.0303 11.4695C22.8897 11.3288 22.6989 11.2498 22.5 11.2498ZM19.5 13.4998C19.2033 13.4998 18.9133 13.4118 18.6666 13.247C18.42 13.0822 18.2277 12.8479 18.1142 12.5738C18.0006 12.2997 17.9709 11.9981 18.0288 11.7072C18.0867 11.4162 18.2296 11.1489 18.4393 10.9391C18.6491 10.7293 18.9164 10.5865 19.2074 10.5286C19.4983 10.4707 19.7999 10.5004 20.074 10.614C20.3481 10.7275 20.5824 10.9198 20.7472 11.1664C20.912 11.4131 21 11.7031 21 11.9998C21 12.3976 20.842 12.7791 20.5607 13.0604C20.2794 13.3418 19.8978 13.4998 19.5 13.4998ZM22.5 18.7498H14.8935C14.7298 18.1066 14.3565 17.5363 13.8325 17.129C13.3085 16.7216 12.6637 16.5005 12 16.5005C11.3363 16.5005 10.6915 16.7216 10.1675 17.129C9.64354 17.5363 9.2702 18.1066 9.1065 18.7498H1.5C1.30109 18.7498 1.11032 18.8288 0.96967 18.9695C0.829018 19.1101 0.75 19.3009 0.75 19.4998C0.75 19.6987 0.829018 19.8895 0.96967 20.0301C1.11032 20.1708 1.30109 20.2498 1.5 20.2498H9.1065C9.2702 20.893 9.64354 21.4633 10.1675 21.8706C10.6915 22.278 11.3363 22.4991 12 22.4991C12.6637 22.4991 13.3085 22.278 13.8325 21.8706C14.3565 21.4633 14.7298 20.893 14.8935 20.2498H22.5C22.6989 20.2498 22.8897 20.1708 23.0303 20.0301C23.171 19.8895 23.25 19.6987 23.25 19.4998C23.25 19.3009 23.171 19.1101 23.0303 18.9695C22.8897 18.8288 22.6989 18.7498 22.5 18.7498ZM12 20.9998C11.7033 20.9998 11.4133 20.9118 11.1666 20.747C10.92 20.5822 10.7277 20.3479 10.6142 20.0738C10.5006 19.7997 10.4709 19.4981 10.5288 19.2072C10.5867 18.9162 10.7296 18.6489 10.9393 18.4391C11.1491 18.2293 11.4164 18.0865 11.7074 18.0286C11.9983 17.9707 12.2999 18.0004 12.574 18.114C12.8481 18.2275 13.0824 18.4198 13.2472 18.6664C13.412 18.9131 13.5 19.2031 13.5 19.4998C13.5 19.8976 13.342 20.2791 13.0607 20.5604C12.7794 20.8418 12.3978 20.9998 12 20.9998Z" fill="#6B185E"/>
</svg>
