<svg width="17" height="17" viewBox="0 0 17 17" fill="none" xmlns="http://www.w3.org/2000/svg">
<path d="M15.167 3.99984H13.3503C13.442 3.7415 13.5003 3.45817 13.5003 3.1665C13.5003 1.78317 12.3837 0.666504 11.0003 0.666504C10.1253 0.666504 9.36699 1.1165 8.91699 1.7915L8.50033 2.34984L8.08366 1.78317C7.63366 1.1165 6.87533 0.666504 6.00033 0.666504C4.61699 0.666504 3.50033 1.78317 3.50033 3.1665C3.50033 3.45817 3.55866 3.7415 3.65033 3.99984H1.83366C0.908659 3.99984 0.175326 4.7415 0.175326 5.6665L0.166992 14.8332C0.166992 15.7582 0.908659 16.4998 1.83366 16.4998H15.167C16.092 16.4998 16.8337 15.7582 16.8337 14.8332V5.6665C16.8337 4.7415 16.092 3.99984 15.167 3.99984ZM11.0003 2.33317C11.4587 2.33317 11.8337 2.70817 11.8337 3.1665C11.8337 3.62484 11.4587 3.99984 11.0003 3.99984C10.542 3.99984 10.167 3.62484 10.167 3.1665C10.167 2.70817 10.542 2.33317 11.0003 2.33317ZM6.00033 2.33317C6.45866 2.33317 6.83366 2.70817 6.83366 3.1665C6.83366 3.62484 6.45866 3.99984 6.00033 3.99984C5.54199 3.99984 5.16699 3.62484 5.16699 3.1665C5.16699 2.70817 5.54199 2.33317 6.00033 2.33317ZM15.167 14.8332H1.83366V13.1665H15.167V14.8332ZM15.167 10.6665H1.83366V5.6665H6.06699L4.33366 8.02484L5.68366 8.99984L7.66699 6.29984L8.50033 5.1665L9.33366 6.29984L11.317 8.99984L12.667 8.02484L10.9337 5.6665H15.167V10.6665Z" fill="#6B185E"/>
</svg>
