<svg width="20" height="10" viewBox="0 0 20 10" fill="none" xmlns="http://www.w3.org/2000/svg">
<path d="M14.9167 8.33317H5.33333C3.49167 8.33317 2 6.8415 2 4.99984C2 3.15817 3.49167 1.6665 5.33333 1.6665H15.75C16.9 1.6665 17.8333 2.59984 17.8333 3.74984C17.8333 4.89984 16.9 5.83317 15.75 5.83317H7C6.54167 5.83317 6.16667 5.45817 6.16667 4.99984C6.16667 4.5415 6.54167 4.1665 7 4.1665H14.9167V2.9165H7C5.85 2.9165 4.91667 3.84984 4.91667 4.99984C4.91667 6.14984 5.85 7.08317 7 7.08317H15.75C17.5917 7.08317 19.0833 5.5915 19.0833 3.74984C19.0833 1.90817 17.5917 0.416504 15.75 0.416504H5.33333C2.8 0.416504 0.75 2.4665 0.75 4.99984C0.75 7.53317 2.8 9.58317 5.33333 9.58317H14.9167V8.33317Z" fill="#6B185E"/>
</svg>
