<svg width="87" height="88" viewBox="0 0 87 88" fill="none" xmlns="http://www.w3.org/2000/svg">
<g clip-path="url(#clip0_401_16238)">
<path d="M74.3222 12.7882C66.1436 4.54642 55.2687 0.00502851 43.6821 0C19.8063 0 0.376146 19.5607 0.366587 43.6037C0.363805 51.2891 2.35786 58.7912 6.14801 65.4041L0.00292969 88L22.965 81.9366C29.2915 85.4112 36.4147 87.2421 43.6635 87.245H43.6819H43.6821C67.5541 87.245 86.9872 67.6808 86.9973 43.639C87.0013 31.9867 82.4996 21.0306 74.3222 12.7882ZM43.6821 79.8802H43.6681C37.2068 79.8767 30.8707 78.1298 25.3441 74.8273L24.0289 74.0422L10.4027 77.6399L14.0407 64.2658L13.1838 62.8947C9.57965 57.1237 7.67697 50.4545 7.67968 43.6065C7.6876 23.6228 23.8372 7.36511 43.6957 7.36511C53.3123 7.36913 62.3508 11.144 69.1485 17.9943C75.9458 24.8446 79.6864 33.951 79.6836 43.6359C79.6751 63.6203 63.525 79.8802 43.6821 79.8802Z" fill="#E0E0E0"/>
<path d="M1.99121 85.493L7.8556 63.9293C4.23764 57.6184 2.33504 50.4585 2.33732 43.1255C2.34681 20.1813 20.8896 1.51465 43.6728 1.51465C54.7306 1.51968 65.109 5.85339 72.9122 13.7189C80.717 21.5843 85.0127 32.0393 85.0082 43.1581C84.9987 66.1029 66.4548 84.7712 43.6744 84.7712C43.6728 84.7712 43.6756 84.7712 43.6744 84.7712H43.656C36.7383 84.769 29.941 83.0202 23.904 79.7068L1.99121 85.493Z" fill="url(#paint0_linear_401_16238)"/>
<path fill-rule="evenodd" clip-rule="evenodd" d="M32.9784 25.0919C32.177 23.2977 31.3333 23.2618 30.5709 23.2304C29.9473 23.2034 29.2334 23.2051 28.5206 23.2051C27.8073 23.2051 26.6481 23.4751 25.6679 24.5532C24.687 25.6313 21.9229 28.2376 21.9229 33.5382C21.9229 38.8395 25.757 43.9618 26.2914 44.6812C26.8264 45.3996 33.6929 56.6251 44.5673 60.9436C53.6048 64.5326 55.444 63.8187 57.4056 63.6391C59.3673 63.4595 63.7353 61.0334 64.627 58.5174C65.5187 56.002 65.5187 53.8459 65.2512 53.3952C64.9837 52.9462 64.2703 52.6768 63.2003 52.138C62.1303 51.5993 56.8706 48.9924 55.8898 48.6332C54.909 48.2741 54.1956 48.0945 53.4823 49.1732C52.769 50.2507 50.7198 52.6768 50.0956 53.3952C49.4714 54.1152 48.8473 54.205 47.7773 53.6662C46.7073 53.1258 43.2615 51.9893 39.1738 48.3189C35.9934 45.4634 33.8461 41.9367 33.2219 40.8581C32.5977 39.7806 33.155 39.1969 33.6917 38.6598C34.1721 38.1771 34.7617 37.4021 35.2967 36.7729C35.8306 36.1438 36.0089 35.6948 36.3656 34.9765C36.7222 34.257 36.5439 33.6279 36.2764 33.0891C36.0089 32.5504 33.9297 27.2223 32.9784 25.0919Z" fill="#EFF5FE"/>
<path d="M73.968 12.6497C65.8834 4.50256 55.1332 0.0134011 43.6798 0.00830078C20.078 0.00830078 0.870889 19.3445 0.861402 43.1114C0.85862 50.7087 2.82977 58.1246 6.57642 64.6617L0.501953 86.9981L23.2004 81.0042C29.4544 84.4389 36.4958 86.2488 43.6614 86.2516H43.6796H43.6798C67.2777 86.2516 86.4876 66.9121 86.4977 43.1462C86.5016 31.6278 82.0516 20.7975 73.968 12.6497ZM43.6798 78.9716H43.6659C37.2788 78.9682 31.0154 77.2413 25.5522 73.9768L24.252 73.2006L10.7823 76.757L14.3785 63.5364L13.5314 62.1811C9.96867 56.4763 8.08783 49.8837 8.09061 43.1143C8.09838 23.36 24.0626 7.289 43.6932 7.289C53.1995 7.29295 62.134 11.0245 68.8539 17.7961C75.5731 24.5678 79.2707 33.5697 79.268 43.1435C79.2595 62.8983 63.2948 78.9716 43.6798 78.9716Z" fill="#EFF5FE"/>
</g>
<defs>
<linearGradient id="paint0_linear_401_16238" x1="43.4997" y1="85.493" x2="43.4997" y2="1.51479" gradientUnits="userSpaceOnUse">
<stop stop-color="#20B038"/>
<stop offset="1" stop-color="#60D66A"/>
</linearGradient>
<clipPath id="clip0_401_16238">
<rect width="87" height="88" fill="white"/>
</clipPath>
</defs>
</svg>
